# 3ds Max Wavefront OBJ Exporter v0.97b - (c)2007 guruware
# File Created: 06.06.2020 17:38:52

mtllib skydome.mtl

#
# object Sphere001
#

v  0.000000 7600.000000 -0.000000
v  -0.000112 6914.049805 -2560.000000
v  -1280.000122 6914.049805 -2217.024902
v  -2217.024902 6914.049805 -1280.000122
v  -2560.000000 6914.049805 -0.000387
v  -2217.025391 6914.049805 1279.999512
v  -1280.000732 6914.049805 2217.024414
v  -0.001190 6914.049805 2560.000000
v  1279.998657 6914.049805 2217.025879
v  2217.024170 6914.049805 1280.001465
v  2560.000000 6914.049805 0.001994
v  2217.026123 6914.049805 -1279.998047
v  1280.002197 6914.049805 -2217.023682
v  -0.000194 5040.000000 -4434.050293
v  -2217.025391 5040.000000 -3840.000000
v  -3840.000000 5040.000000 -2217.025391
v  -4434.050293 5040.000000 -0.000670
v  -3840.000488 5040.000000 2217.024170
v  -2217.026611 5040.000000 3839.999512
v  -0.002061 5040.000000 4434.050293
v  2217.022949 5040.000000 3840.001465
v  3839.998779 5040.000000 2217.027832
v  4434.050293 5040.000000 0.003453
v  3840.002197 5040.000000 -2217.021729
v  2217.028809 5040.000000 -3839.997803
v  -0.000224 2479.999756 -5120.000000
v  -2560.000244 2479.999756 -4434.049805
v  -4434.049805 2479.999756 -2560.000244
v  -5120.000000 2479.999756 -0.000773
v  -4434.050781 2479.999756 2559.999023
v  -2560.001465 2479.999756 4434.048828
v  -0.002380 2479.999756 5120.000000
v  2559.997314 2479.999756 4434.051758
v  4434.048340 2479.999756 2560.002930
v  5120.000000 2479.999756 0.003988
v  4434.052246 2479.999756 -2559.996094
v  2560.004395 2479.999756 -4434.047363
v  -0.000194 -56.749023 -4447.393066
v  -2223.696777 -56.749023 -3851.555176
v  -3851.555176 -56.749023 -2223.696777
v  -4447.393066 -56.749023 -0.000672
v  -3851.555664 -56.749023 2223.695557
v  -2223.697754 -56.749023 3851.554199
v  -0.002068 -56.749023 4447.393066
v  2223.694092 -56.749023 3851.556396
v  3851.553955 -56.749023 2223.698975
v  4447.393066 -56.749023 0.003464
v  3851.557373 -56.749023 -2223.692871
v  2223.700195 -56.749023 -3851.552979
v  0.000000 -1520.000000 -0.000000
# 50 vertices

vn 0.000000 1.000000 -0.000000
vn 0.000000 0.847435 -0.530900
vn -0.265450 0.847435 -0.459773
vn -0.459773 0.847435 -0.265450
vn -0.530900 0.847435 -0.000000
vn -0.459773 0.847435 0.265450
vn -0.265450 0.847435 0.459773
vn -0.000000 0.847435 0.530900
vn 0.265450 0.847435 0.459773
vn 0.459773 0.847435 0.265450
vn 0.530900 0.847435 0.000000
vn 0.459773 0.847435 -0.265450
vn 0.265450 0.847435 -0.459773
vn 0.000000 0.482342 -0.875983
vn -0.437992 0.482342 -0.758624
vn -0.758624 0.482342 -0.437992
vn -0.875983 0.482342 -0.000000
vn -0.758624 0.482342 0.437991
vn -0.437992 0.482342 0.758624
vn -0.000000 0.482342 0.875983
vn 0.437991 0.482342 0.758624
vn 0.758623 0.482342 0.437992
vn 0.875983 0.482342 0.000001
vn 0.758624 0.482342 -0.437991
vn 0.437992 0.482342 -0.758623
vn 0.000000 0.001257 -0.999999
vn -0.500000 0.001257 -0.866025
vn -0.866025 0.001257 -0.500000
vn -0.999999 0.001257 -0.000000
vn -0.866025 0.001257 0.499999
vn -0.500000 0.001257 0.866025
vn -0.000001 0.001257 0.999999
vn 0.499999 0.001257 0.866025
vn 0.866024 0.001257 0.500000
vn 0.999999 0.001257 0.000001
vn 0.866025 0.001257 -0.499999
vn 0.500000 0.001257 -0.866024
vn 0.000000 -0.648950 -0.760831
vn -0.380415 -0.648950 -0.658899
vn -0.658899 -0.648950 -0.380416
vn -0.760831 -0.648950 -0.000000
vn -0.658899 -0.648950 0.380415
vn -0.380416 -0.648950 0.658899
vn -0.000000 -0.648950 0.760831
vn 0.380415 -0.648950 0.658899
vn 0.658899 -0.648950 0.380416
vn 0.760831 -0.648950 0.000001
vn 0.658899 -0.648950 -0.380415
vn 0.380416 -0.648950 -0.658899
vn -0.000000 -1.000000 -0.000000
# 50 vertex normals

vt 0.000000 1.000000 0.000000
vt 0.000000 0.813864 0.000000
vt 0.083273 0.813864 0.000000
vt 0.083333 1.000000 0.000000
vt 0.166546 0.813864 0.000000
vt 0.166667 1.000000 0.000000
vt 0.249820 0.813864 0.000000
vt 0.250000 1.000000 0.000000
vt 0.333093 0.813864 0.000000
vt 0.333333 1.000000 0.000000
vt 0.416366 0.813864 0.000000
vt 0.416667 1.000000 0.000000
vt 0.499639 0.813864 0.000000
vt 0.500000 1.000000 0.000000
vt 0.582912 0.813864 0.000000
vt 0.583333 1.000000 0.000000
vt 0.666186 0.813864 0.000000
vt 0.666667 1.000000 0.000000
vt 0.749459 0.813864 0.000000
vt 0.750000 1.000000 0.000000
vt 0.832732 0.813864 0.000000
vt 0.833333 1.000000 0.000000
vt 0.916005 0.813864 0.000000
vt 0.916667 1.000000 0.000000
vt 0.999278 0.813864 0.000000
vt 0.000000 0.516184 0.000000
vt 0.083273 0.516184 0.000000
vt 0.166546 0.516184 0.000000
vt 0.249820 0.516184 0.000000
vt 0.333093 0.516184 0.000000
vt 0.416366 0.516184 0.000000
vt 0.499639 0.516184 0.000000
vt 0.582912 0.516184 0.000000
vt 0.666186 0.516184 0.000000
vt 0.749459 0.516184 0.000000
vt 0.832732 0.516184 0.000000
vt 0.916005 0.516184 0.000000
vt 0.999278 0.516184 0.000000
vt 0.000000 0.218504 0.000000
vt 0.083273 0.218504 0.000000
vt 0.166546 0.218504 0.000000
vt 0.249820 0.218504 0.000000
vt 0.333093 0.218504 0.000000
vt 0.416366 0.218504 0.000000
vt 0.499639 0.218504 0.000000
vt 0.582912 0.218504 0.000000
vt 0.666186 0.218504 0.000000
vt 0.749459 0.218504 0.000000
vt 0.832732 0.218504 0.000000
vt 0.916005 0.218504 0.000000
vt 0.999278 0.218504 0.000000
vt 0.000000 0.002479 0.000000
vt 0.083333 0.002479 0.000000
vt 0.166667 0.002771 0.000000
vt 0.250000 0.002479 0.000000
vt 0.333333 0.002479 0.000000
vt 0.416667 0.002479 0.000000
vt 0.500000 0.002479 0.000000
vt 0.583333 0.002479 0.000000
vt 0.666667 0.002479 0.000000
vt 0.750000 0.002479 0.000000
vt 0.833333 0.002479 0.000000
vt 0.916667 0.002479 0.000000
vt 1.000000 0.002479 0.000000
vt 0.000000 0.000442 0.000000
vt 0.083333 0.000442 0.000000
vt 0.166667 0.000442 0.000000
vt 0.250000 0.000442 0.000000
vt 0.333333 0.000442 0.000000
vt 0.416667 0.000442 0.000000
vt 0.500000 0.000442 0.000000
vt 0.583333 0.000442 0.000000
vt 0.666667 0.000442 0.000000
vt 0.750000 0.000442 0.000000
vt 0.833333 0.000442 0.000000
vt 0.916667 0.000442 0.000000
# 76 texture coords

o Sphere001
g Sphere001
usemtl 01___Default
s 1
f 1/1/1 2/2/2 3/3/3 
f 1/4/1 3/3/3 4/5/4 
f 1/6/1 4/5/4 5/7/5 
f 1/8/1 5/7/5 6/9/6 
f 1/10/1 6/9/6 7/11/7 
f 1/12/1 7/11/7 8/13/8 
f 1/14/1 8/13/8 9/15/9 
f 1/16/1 9/15/9 10/17/10 
f 1/18/1 10/17/10 11/19/11 
f 1/20/1 11/19/11 12/21/12 
f 1/22/1 12/21/12 13/23/13 
f 1/24/1 13/23/13 2/25/2 
f 2/2/2 14/26/14 15/27/15 3/3/3 
f 3/3/3 15/27/15 16/28/16 4/5/4 
f 4/5/4 16/28/16 17/29/17 5/7/5 
f 5/7/5 17/29/17 18/30/18 6/9/6 
f 6/9/6 18/30/18 19/31/19 7/11/7 
f 7/11/7 19/31/19 20/32/20 8/13/8 
f 8/13/8 20/32/20 21/33/21 9/15/9 
f 9/15/9 21/33/21 22/34/22 10/17/10 
f 10/17/10 22/34/22 23/35/23 11/19/11 
f 11/19/11 23/35/23 24/36/24 12/21/12 
f 12/21/12 24/36/24 25/37/25 13/23/13 
f 13/23/13 25/37/25 14/38/14 2/25/2 
f 14/26/14 26/39/26 27/40/27 15/27/15 
f 15/27/15 27/40/27 28/41/28 16/28/16 
f 16/28/16 28/41/28 29/42/29 17/29/17 
f 17/29/17 29/42/29 30/43/30 18/30/18 
f 18/30/18 30/43/30 31/44/31 19/31/19 
f 19/31/19 31/44/31 32/45/32 20/32/20 
f 20/32/20 32/45/32 33/46/33 21/33/21 
f 21/33/21 33/46/33 34/47/34 22/34/22 
f 22/34/22 34/47/34 35/48/35 23/35/23 
f 23/35/23 35/48/35 36/49/36 24/36/24 
f 24/36/24 36/49/36 37/50/37 25/37/25 
f 25/37/25 37/50/37 26/51/26 14/38/14 
f 26/39/26 38/52/38 39/53/39 27/40/27 
f 27/40/27 39/53/39 40/54/40 28/41/28 
f 28/41/28 40/54/40 41/55/41 29/42/29 
f 29/42/29 41/55/41 42/56/42 30/43/30 
f 30/43/30 42/56/42 43/57/43 31/44/31 
f 31/44/31 43/57/43 44/58/44 32/45/32 
f 32/45/32 44/58/44 45/59/45 33/46/33 
f 33/46/33 45/59/45 46/60/46 34/47/34 
f 34/47/34 46/60/46 47/61/47 35/48/35 
f 35/48/35 47/61/47 48/62/48 36/49/36 
f 36/49/36 48/62/48 49/63/49 37/50/37 
f 37/50/37 49/63/49 38/64/38 26/51/26 
s 2
f 50/65/50 39/53/39 38/52/38 
f 50/66/50 40/54/40 39/53/39 
f 50/67/50 41/55/41 40/54/40 
f 50/68/50 42/56/42 41/55/41 
f 50/69/50 43/57/43 42/56/42 
f 50/70/50 44/58/44 43/57/43 
f 50/71/50 45/59/45 44/58/44 
f 50/72/50 46/60/46 45/59/45 
f 50/73/50 47/61/47 46/60/46 
f 50/74/50 48/62/48 47/61/47 
f 50/75/50 49/63/49 48/62/48 
f 50/76/50 38/64/38 49/63/49 
# 36 polygons - 24 triangles

